<?xml version="1.0" encoding="UTF-8"?>
<svg width="36px" height="36px" viewBox="0 0 36 36" version="1.1" xmlns="http://www.w3.org/2000/svg" xmlns:xlink="http://www.w3.org/1999/xlink">
    <title>Group</title>
    <g id="Tablet" stroke="none" stroke-width="1" fill="none" fill-rule="evenodd" opacity="0.5">
        <g id="15-Navigation" transform="translate(-87.000000, -187.000000)" stroke="#FFFFFF" stroke-width="2">
            <g id="Icon" transform="translate(80.000000, 180.000000)">
                <g id="Group" transform="translate(7.000000, 7.000000)">
                    <path d="M7,23 C8.65685425,23 10.1568542,23.6715729 11.2426407,24.7573593 C12.3284271,25.8431458 13,27.3431458 13,29 C13,30.6568542 12.3284271,32.1568542 11.2426407,33.2426407 C10.1568542,34.3284271 8.65685425,35 7,35 C5.34314575,35 3.84314575,34.3284271 2.75735931,33.2426407 C1.67157288,32.1568542 1,30.6568542 1,29 C1,27.3431458 1.67157288,25.8431458 2.75735931,24.7573593 C3.84314575,23.6715729 5.34314575,23 7,23 Z M29,23 C30.6568542,23 32.1568542,23.6715729 33.2426407,24.7573593 C34.3284271,25.8431458 35,27.3431458 35,29 C35,30.6568542 34.3284271,32.1568542 33.2426407,33.2426407 C32.1568542,34.3284271 30.6568542,35 29,35 C27.3431458,35 25.8431458,34.3284271 24.7573593,33.2426407 C23.6715729,32.1568542 23,30.6568542 23,29 C23,27.3431458 23.6715729,25.8431458 24.7573593,24.7573593 C25.8431458,23.6715729 27.3431458,23 29,23 Z M7,1 C8.65685425,1 10.1568542,1.67157288 11.2426407,2.75735931 C12.3284271,3.84314575 13,5.34314575 13,7 C13,8.65685425 12.3284271,10.1568542 11.2426407,11.2426407 C10.1568542,12.3284271 8.65685425,13 7,13 C5.34314575,13 3.84314575,12.3284271 2.75735931,11.2426407 C1.67157288,10.1568542 1,8.65685425 1,7 C1,5.34314575 1.67157288,3.84314575 2.75735931,2.75735931 C3.84314575,1.67157288 5.34314575,1 7,1 Z M29,1 C30.6568542,1 32.1568542,1.67157288 33.2426407,2.75735931 C34.3284271,3.84314575 35,5.34314575 35,7 C35,8.65685425 34.3284271,10.1568542 33.2426407,11.2426407 C32.1568542,12.3284271 30.6568542,13 29,13 C27.3431458,13 25.8431458,12.3284271 24.7573593,11.2426407 C23.6715729,10.1568542 23,8.65685425 23,7 C23,5.34314575 23.6715729,3.84314575 24.7573593,2.75735931 C25.8431458,1.67157288 27.3431458,1 29,1 Z" id="Shape"></path>
                </g>
            </g>
        </g>
    </g>
</svg>