<?xml version="1.0" encoding="UTF-8"?>
<svg width="50px" height="51px" viewBox="0 0 50 51" version="1.1" xmlns="http://www.w3.org/2000/svg" xmlns:xlink="http://www.w3.org/1999/xlink">
    <title>Username</title>
    <g id="Tablet" stroke="none" stroke-width="1" fill="none" fill-rule="evenodd" opacity="0.5">
        <g id="1-Login" transform="translate(-483.000000, -935.000000)">
            <g id="Username" transform="translate(443.000000, 905.500000)">
                <g id="Username" transform="translate(40.000000, 30.000000)">
                    <g id="Group" transform="translate(3.000000, 3.000000)" stroke="#FFFFFF" stroke-width="2">
                        <circle id="Oval" cx="22" cy="22" r="21"></circle>
                        <path d="M22,12 C23.65,12 25.1493631,12.6760767 26.2366432,13.7633568 C27.3239233,14.8506369 28,16.35 28,18 C28,19.65 27.3239233,21.1493631 26.2366432,22.2366432 C25.1493631,23.3239233 23.65,24 22,24 C20.35,24 18.8506369,23.3239233 17.7633568,22.2366432 C16.6760767,21.1493631 16,19.65 16,18 C16,16.35 16.6760767,14.8506369 17.7633568,13.7633568 C18.8506369,12.6760767 20.35,12 22,12 Z" id="Shape"></path>
                        <path d="M22,30 C24.9962066,30 29.6591605,30.8299228 33.0651493,32.5329172 C34.3023263,33.1515057 35.3725642,33.8819793 36.0980294,34.7487136 C36.4232727,35.1372912 36.6764089,35.5534331 36.8306425,36 L36.8306425,36 L7.16935745,36 C7.32359109,35.5534331 7.57672727,35.1372912 7.90197059,34.7487136 C8.62743579,33.8819793 9.69767368,33.1515057 10.9348507,32.5329172 C14.3408395,30.8299228 19.0037934,30 22,30 Z" id="Path"></path>
                    </g>
                    <rect id="Bounds" x="0" y="0" width="50" height="50"></rect>
                </g>
            </g>
        </g>
    </g>
</svg>