<?xml version="1.0" encoding="UTF-8"?>
<svg width="44px" height="44px" viewBox="0 0 44 44" version="1.1" xmlns="http://www.w3.org/2000/svg" xmlns:xlink="http://www.w3.org/1999/xlink">
    <title>Group</title>
    <g id="Tablet" stroke="none" stroke-width="1" fill="none" fill-rule="evenodd" opacity="0.5">
        <g id="15-Navigation" transform="translate(-83.000000, -684.000000)" stroke="#FFFFFF" stroke-width="2">
            <g id="Icon" transform="translate(80.000000, 681.000000)">
                <g id="Group" transform="translate(3.000000, 3.000000)">
                    <circle id="Oval" cx="22" cy="22" r="21"></circle>
                    <path d="M21.975,12 C23.6179906,12 25.1109265,12.674099 26.1935678,13.7580251 C27.2766393,14.8423819 27.95,16.3377416 27.95,17.9832776 C27.95,19.6288136 27.2766393,21.1241732 26.1935678,22.2085301 C25.1109265,23.2924562 23.6179906,23.9665552 21.975,23.9665552 C20.3320094,23.9665552 18.8390735,23.2924562 17.7564322,22.2085301 C16.6733607,21.1241732 16,19.6288136 16,17.9832776 C16,16.3377416 16.6733607,14.8423819 17.7564322,13.7580251 C18.8390735,12.674099 20.3320094,12 21.975,12 Z" id="Shape"></path>
                    <path d="M22,29 C24.9967726,29 29.6606125,29.8251723 33.067247,31.5185203 C34.304319,32.1334361 35.3744789,32.8594432 36.099888,33.7210379 C36.4222031,34.1038633 36.6736989,34.5136162 36.8279429,34.9531773 L36.8279429,34.9531773 L7.17205707,34.9531773 C7.32630112,34.5136162 7.57779689,34.1038633 7.90011203,33.7210379 C8.62552105,32.8594432 9.69568102,32.1334361 10.932753,31.5185203 C14.3393875,29.8251723 19.0032274,29 22,29 L22,29 Z" id="Path"></path>
                </g>
            </g>
        </g>
    </g>
</svg>